# xmcd CD database file
#
# Track frame offsets:
#	150
#	17205
#	32003
#	59225
#	72072
#	74468
#	97108
#	113174
#	132686
#	158488
#	176983
#	197829
#	216548
#	242210
#	262402
#	273336
#	294331
#
# Disc length: 4192 seconds
#
# Revision: 0
# Processed by: cddbd v1.5.2PL0 Copyright (c) Steve Scherf et al.
# Submitted via: CDex 1.75
#
DISCID=1c105e11
DTITLE=Betty Buckley - Hope
DYEAR=2018
DGENRE=Jazz
TTITLE0=Ecotopia (Instrumental)
TTITLE1=Any Major Dude Will Tell You
TTITLE2=Falling In Love
TTITLE3=Long Ago and Far Away
TTITLE4=Intro to 'Hope'
TTITLE5=Hope
TTITLE6=My Least Favorite Life
TTITLE7=Don't Take Me Alive
TTITLE8=Little Eyes - Except Goodbye
TTITLE9=Every Little Thing
TTITLE10=Shades of Scarlett Conquering
TTITLE11=Dope Island
TTITLE12=I Feel Lucky
TTITLE13=Quiet
TTITLE14=Gilda Story
TTITLE15=Prisoner in Disguise
TTITLE16=Young At Heart
EXTD=YEAR: 2018
EXTT0=
EXTT1=
EXTT2=
EXTT3=
EXTT4=
EXTT5=
EXTT6=
EXTT7=
EXTT8=
EXTT9=
EXTT10=
EXTT11=
EXTT12=
EXTT13=
EXTT14=
EXTT15=
EXTT16=
PLAYORDER=
